<svg width="29" height="29" viewBox="0 0 29 29" fill="none" xmlns="http://www.w3.org/2000/svg">
<path d="M24.7531 4.24694C22.0144 1.50828 18.373 0 14.5 0C10.627 0 6.9856 1.50828 4.24694 4.24694C1.50828 6.9856 0 10.627 0 14.5C0 18.373 1.50828 22.0144 4.24694 24.7531C6.9856 27.4917 10.627 29 14.5 29C18.373 29 22.0144 27.4917 24.7531 24.7531C27.4917 22.0144 29 18.373 29 14.5C29 10.627 27.4917 6.9856 24.7531 4.24694ZM14.5 2.26562C20.3119 2.26562 25.1898 6.33932 26.4295 11.7812H25.9175C24.9513 10.9726 22.1483 8.94922 18.2949 8.94922C14.4571 8.94922 11.6967 10.8487 10.7431 11.6113H2.611C3.91263 6.25481 8.74876 2.26562 14.5 2.26562ZM14.5 26.7344C11.0228 26.7344 7.87991 25.2763 5.65034 22.9395H13.9568C13.7084 22.7547 13.4745 22.5536 13.2563 22.3361L11.6571 20.6738H3.94161C3.52322 19.9612 3.17453 19.2029 2.90571 18.4082H13.6628L14.0017 17.9394C14.0177 17.9175 15.62 15.7461 18.3516 15.7461C20.7426 15.7461 21.5234 17.0519 21.5234 17.502C21.5234 17.8898 21.3706 19.8242 18.3516 19.8242V19.8375L18.3294 19.8244C18.3126 19.8242 16.892 19.8382 16.2521 18.8662C15.4629 19.6543 14.8562 20.732 14.8562 20.732C15.8983 21.771 17.3842 22.0903 18.2993 22.0903C18.317 22.0903 18.3343 22.0901 18.3516 22.0898C18.3589 22.0898 18.3659 22.0896 18.373 22.0896H18.3739C22.094 22.0801 23.7891 19.7072 23.7891 17.502C23.7891 16.5678 23.2749 15.5647 22.4138 14.819C21.7086 14.2084 20.4316 13.4805 18.3516 13.4805C15.3622 13.4805 13.3599 15.2666 12.5576 16.1426H2.37625C2.3039 15.6052 2.26562 15.0569 2.26562 14.5C2.26562 14.2911 2.27094 14.0834 2.28133 13.877L11.604 13.8798L11.931 13.5723C11.9565 13.5488 14.5197 11.2148 18.2949 11.2148C22.0584 11.2148 24.6721 13.7006 24.6953 13.723L25.0256 14.0469H26.7251C26.7306 14.1973 26.7344 14.3482 26.7344 14.5C26.7344 21.246 21.246 26.7344 14.5 26.7344Z" fill="white"/>
</svg>
